<?xml version="1.0" encoding="UTF-8" standalone="no"?>
<!-- Created with Inkscape (http://www.inkscape.org/) -->

<svg
   version="1.1"
   id="svg2"
   width="1039.8533"
   height="1056"
   viewBox="0 0 1039.8533 1056"
   sodipodi:docname="Straight Path Athletics1.eps"
   xmlns:inkscape="http://www.inkscape.org/namespaces/inkscape"
   xmlns:sodipodi="http://sodipodi.sourceforge.net/DTD/sodipodi-0.dtd"
   xmlns="http://www.w3.org/2000/svg"
   xmlns:svg="http://www.w3.org/2000/svg">
  <defs
     id="defs6" />
  <sodipodi:namedview
     id="namedview4"
     pagecolor="#ffffff"
     bordercolor="#000000"
     borderopacity="0.25"
     inkscape:showpageshadow="2"
     inkscape:pageopacity="0.0"
     inkscape:pagecheckerboard="0"
     inkscape:deskcolor="#d1d1d1" />
  <g
     id="g8"
     inkscape:groupmode="layer"
     inkscape:label="ink_ext_XXXXXX"
     transform="matrix(1.3333333,0,0,-1.3333333,0,1056)">
    <g
       id="g10"
       transform="scale(0.1)">
      <path
         d="m 1765.37,3948.27 c -50.36,0 -98.35,20.14 -116.71,65.75 l -65.17,-33.77 c 30.81,-75.83 95.97,-101.89 180.69,-101.89 92.42,0 174.17,39.69 174.17,132.11 0,98.94 -80.57,121.45 -167.06,132.11 -49.76,5.93 -92.42,16 -92.42,52.14 0,30.8 27.84,55.09 85.9,55.09 45.03,0 84.13,-22.51 98.35,-46.2 l 62.2,31.98 c -31.4,63.99 -98.34,82.35 -162.92,82.35 -76.42,-0.59 -160.55,-35.54 -160.55,-120.85 0,-93.01 78.2,-115.53 162.92,-125.6 55.1,-5.92 95.98,-21.92 95.98,-61.02 0,-45.02 -46.22,-62.2 -95.38,-62.2"
         style="fill:#ffffff;fill-opacity:1;fill-rule:nonzero;stroke:none"
         id="path14" />
      <path
         d="m 2106.04,3889.02 h 78.2 v 343.61 h 131.52 v 71.09 c -120.27,0 -221.57,0 -341.24,0 v -71.09 h 131.52 v -343.61"
         style="fill:#ffffff;fill-opacity:1;fill-rule:nonzero;stroke:none"
         id="path16" />
      <path
         d="m 2872.09,4040.09 77.02,176.55 77.01,-176.55 z m -430.12,58.06 v 132.71 h 119.08 c 49.17,0 71.09,-33.18 71.09,-66.36 0,-33.17 -21.33,-66.35 -71.09,-66.35 z m 549.8,205.57 h -85.32 l -180.86,-403.19 -120.11,135.42 c 78.79,15.99 104.86,73.46 104.86,130.33 0,71.68 -51.54,136.85 -149.29,137.44 -65.77,0 -131.52,0.6 -197.28,0.6 v -415.3 h 78.2 v 138.63 h 75.24 l 120.85,-138.63 h 82.37 10.64 74.08 l 35.55,78.2 h 216.82 l 34.96,-78.2 h 85.31 l -186.02,414.7"
         style="fill:#ffffff;fill-opacity:1;fill-rule:nonzero;stroke:none"
         id="path18" />
      <path
         d="m 3207.44,3889.02 h 77.61 v 414.7 h -77.61 v -414.7"
         style="fill:#ffffff;fill-opacity:1;fill-rule:nonzero;stroke:none"
         id="path20" />
      <path
         d="m 3726.42,3954.19 v 174.77 h -177.73 v -69.91 h 106.04 v -73.46 c -32.58,-26.07 -61.02,-33.17 -93.6,-33.17 -103.08,0 -142.78,70.5 -142.78,138.62 0,85.31 53.92,152.85 142.78,152.85 36.14,0 77.61,-14.81 105.45,-41.47 l 48.58,49.76 c -42.66,42.06 -98.34,63.39 -154.03,63.39 -146.33,0 -219.2,-107.82 -219.2,-224.53 0,-109.01 63.39,-211.49 219.2,-211.49 72.87,0 124.41,27.83 165.29,74.64"
         style="fill:#ffffff;fill-opacity:1;fill-rule:nonzero;stroke:none"
         id="path22" />
      <path
         d="m 4150.62,3888.43 v 414.7 h -77.61 v -174.76 h -203.79 v 174.76 h -78.2 v -414.7 h 78.2 v 167.66 h 203.79 v -167.66 h 77.61"
         style="fill:#ffffff;fill-opacity:1;fill-rule:nonzero;stroke:none"
         id="path24" />
      <path
         d="m 4409.54,3889.02 v 343.61 h 131.51 v 71.09 c -120.26,0 -221.56,0 -341.23,0 v -71.09 h 131.52 v -343.61 h 78.2"
         style="fill:#ffffff;fill-opacity:1;fill-rule:nonzero;stroke:none"
         id="path26" />
      <path
         d="m 4903.66,4082.75 h -117.3 v 146.92 h 117.3 c 99.53,0 100.12,-146.92 0,-146.92 z m 0,221.57 c -65.17,0 -130.34,-0.6 -195.51,-0.6 v -414.7 h 78.21 v 122.04 h 117.3 c 203.2,0 202.6,293.26 0,293.26"
         style="fill:#ffffff;fill-opacity:1;fill-rule:nonzero;stroke:none"
         id="path28" />
      <path
         d="m 5294.69,4216.64 77.01,-176.55 h -154.03 z m -108.42,-249.42 h 216.83 l 34.95,-78.2 h 85.32 l -186.03,414.7 h -85.31 l -186.02,-414.7 h 84.72 l 35.54,78.2"
         style="fill:#ffffff;fill-opacity:1;fill-rule:nonzero;stroke:none"
         id="path30" />
      <path
         d="m 5598.04,3889.02 h 78.2 v 343.61 h 131.52 v 71.09 c -120.26,0 -221.57,0 -341.24,0 v -71.09 h 131.52 v -343.61"
         style="fill:#ffffff;fill-opacity:1;fill-rule:nonzero;stroke:none"
         id="path32" />
      <path
         d="m 5933.97,4056.09 h 203.79 v -167.66 h 77.61 v 414.7 h -77.61 v -174.76 h -203.79 v 174.76 h -78.2 v -414.7 h 78.2 v 167.66"
         style="fill:#ffffff;fill-opacity:1;fill-rule:nonzero;stroke:none"
         id="path34" />
      <path
         d="m 2928.01,3674.37 34.44,78.94 34.44,-78.94 z m 15.37,117.88 -83.18,-185.43 h 37.88 l 15.9,34.97 h 96.95 l 15.62,-34.97 h 38.15 l -83.18,185.43 h -38.14"
         style="fill:#ffffff;fill-opacity:1;fill-rule:nonzero;stroke:none"
         id="path36" />
      <path
         d="m 3118.76,3760.46 h 58.8 v -153.64 h 34.97 v 153.64 h 58.8 v 31.79 c -53.77,0 -99.07,0 -152.57,0 v -31.79"
         style="fill:#ffffff;fill-opacity:1;fill-rule:nonzero;stroke:none"
         id="path38" />
      <path
         d="m 3498.36,3713.84 h -91.12 v 78.14 h -34.97 v -185.42 h 34.97 v 74.96 h 91.12 v -74.96 h 34.7 v 185.42 h -34.7 v -78.14"
         style="fill:#ffffff;fill-opacity:1;fill-rule:nonzero;stroke:none"
         id="path40" />
      <path
         d="m 3680.36,3792.25 h -34.97 v -185.43 h 130.33 v 32.32 h -95.36 v 153.11"
         style="fill:#ffffff;fill-opacity:1;fill-rule:nonzero;stroke:none"
         id="path42" />
      <path
         d="m 3879.3,3606.82 h 138.81 v 34.44 h -104.1 v 41.85 h 100.39 v 32.58 h -100.39 v 42.65 h 104.1 v 33.91 H 3879.3 c 0,-61.72 0,-123.71 0,-185.43"
         style="fill:#ffffff;fill-opacity:1;fill-rule:nonzero;stroke:none"
         id="path44" />
      <path
         d="m 4124.6,3760.46 h 58.81 v -153.64 h 34.96 v 153.64 h 58.81 v 31.79 c -53.77,0 -99.07,0 -152.58,0 v -31.79"
         style="fill:#ffffff;fill-opacity:1;fill-rule:nonzero;stroke:none"
         id="path46" />
      <path
         d="m 4378.12,3606.82 h 34.7 v 185.43 h -34.7 v -185.43"
         style="fill:#ffffff;fill-opacity:1;fill-rule:nonzero;stroke:none"
         id="path48" />
      <path
         d="m 4618.12,3635.43 c -45.82,0 -63.58,32.05 -63.84,62.78 -0.27,30.99 19.07,64.37 63.84,64.37 16.16,0 32.58,-5.56 44.77,-17.48 l 23.31,22.51 c -19.08,18.81 -42.91,28.34 -68.08,28.34 -67.02,0 -98.54,-49.27 -98.28,-97.74 0.27,-48.21 29.41,-95.62 98.28,-95.62 26.75,0 51.39,8.74 70.46,27.54 l -23.84,24.11 c -12.19,-12.19 -30.46,-18.81 -46.62,-18.81"
         style="fill:#ffffff;fill-opacity:1;fill-rule:nonzero;stroke:none"
         id="path50" />
      <path
         d="m 4863.95,3720.2 c -22.25,2.65 -41.32,7.15 -41.32,23.31 0,13.77 12.45,24.63 38.41,24.63 20.13,0 37.61,-10.06 43.97,-20.66 l 27.81,14.3 c -14.04,28.61 -43.97,36.82 -72.84,36.82 -34.17,-0.26 -71.78,-15.89 -71.78,-54.03 0,-41.59 34.96,-51.66 72.84,-56.16 24.63,-2.65 42.91,-9.8 42.91,-27.29 0,-20.13 -20.66,-27.81 -42.65,-27.81 -22.51,0 -43.97,9.01 -52.18,29.4 l -29.14,-15.09 c 13.78,-33.91 42.92,-45.56 80.79,-45.56 41.33,0 77.88,17.74 77.88,59.06 0,44.24 -36.02,54.31 -74.7,59.08"
         style="fill:#ffffff;fill-opacity:1;fill-rule:nonzero;stroke:none"
         id="path52" />
      <path
         d="m 1583.49,3677 h 1198.23 v 46.66 H 1583.49 V 3677"
         style="fill:#ffffff;fill-opacity:1;fill-rule:nonzero;stroke:none"
         id="path54" />
      <path
         d="m 5066.01,3722.6 v -46.66 h 1149.36 v 46.66 H 5066.01"
         style="fill:#ffffff;fill-opacity:1;fill-rule:nonzero;stroke:none"
         id="path56" />
      <path
         d="m 3885.59,5855.25 h -0.14 c -0.52,-468.48 -27.59,-934.74 -27.59,-1401.09 29.02,0 53.5,0 80.79,0 0,469.16 -52.05,933.93 -53.06,1401.09"
         style="fill:#ffffff;fill-opacity:1;fill-rule:nonzero;stroke:none"
         id="path58" />
      <path
         d="m 4134.16,5473.22 h -0.13 c -0.71,-344.68 -40.6,-682.18 -40.6,-1020.05 29.26,0 54.07,0 81.34,0 0,341.13 -39.89,678.73 -40.61,1020.05"
         style="fill:#ffffff;fill-opacity:1;fill-rule:nonzero;stroke:none"
         id="path60" />
      <path
         d="m 3663.45,5473.22 h -0.14 c -0.79,-343.32 -39.22,-680.49 -39.22,-1018.86 28.72,0 53.08,0 78.58,0 0,341.8 -38.42,679 -39.22,1018.86"
         style="fill:#ffffff;fill-opacity:1;fill-rule:nonzero;stroke:none"
         id="path62" />
      <path
         d="m 3897.06,2077.18 c 0.01,-4.15 0.06,-8.29 0.06,-12.43 0,4.15 0.06,8.28 0.06,12.43 0.68,471.66 39.56,937.22 39.56,1403.22 -29.35,0 -53.92,0 -79.24,0 0,-469.87 38.88,-935.59 39.56,-1403.22"
         style="fill:#ffffff;fill-opacity:1;fill-rule:nonzero;stroke:none"
         id="path64" />
      <path
         d="m 4134.08,2461.61 c 0,-3.02 0.06,-6.04 0.06,-9.06 0,3.02 0.06,6.04 0.07,9.06 0.7,341.41 40.42,679.14 40.42,1017.71 -29.57,0 -55.63,0 -80.98,0 0,-342.75 39.72,-680.42 40.43,-1017.71"
         style="fill:#ffffff;fill-opacity:1;fill-rule:nonzero;stroke:none"
         id="path66" />
      <path
         d="m 3664.11,2461.61 c 0.01,-2.55 0.06,-5.1 0.06,-7.65 0,2.55 0.04,5.1 0.05,7.65 0.56,341.71 38.66,678.24 38.66,1019.27 -30.81,0 -53.41,0 -77.43,0 0,-343.13 38.09,-682.62 38.66,-1019.27"
         style="fill:#ffffff;fill-opacity:1;fill-rule:nonzero;stroke:none"
         id="path68" />
    </g>
  </g>
</svg>
